<?xml version="1.0" encoding="UTF-8"?>
<svg width="60px" height="60px" viewBox="0 0 60 60" version="1.1" xmlns="http://www.w3.org/2000/svg" xmlns:xlink="http://www.w3.org/1999/xlink">
    <!-- Generator: Sketch 41.2 (35397) - http://www.bohemiancoding.com/sketch -->
    <title>news point 1</title>
    <desc>Created with Sketch.</desc>
    <defs>
        <linearGradient x1="85.7613032%" y1="83.5239362%" x2="-38.4815492%" y2="-36.7627992%" id="linearGradient-1">
            <stop stop-color="#e77512" offset="0%"></stop>
            <stop stop-color="#f7d49b" offset="100%"></stop>
        </linearGradient>
    </defs>
    <g id="Page-1" stroke="none" stroke-width="1" fill="none" fill-rule="evenodd">
        <g id="Desktop-HD" transform="translate(-690.000000, -5501.000000)">
            <g id="News-feed" transform="translate(0.000000, 4500.000000)">
                <g id="news-point-1" transform="translate(690.000000, 1001.000000)">
                    <path d="M30,60 C46.5685425,60 60,46.5685425 60,30 C60,13.4314575 46.5685425,0 30,0 C13.4314575,0 0,13.4314575 0,30 C0,46.5685425 13.4314575,60 30,60 Z M30,49.787234 C40.9281876,49.787234 49.787234,40.9281876 49.787234,30 C49.787234,19.0718124 40.9281876,10.212766 30,10.212766 C19.0718124,10.212766 10.212766,19.0718124 10.212766,30 C10.212766,40.9281876 19.0718124,49.787234 30,49.787234 Z" id="news-1" fill="url(#linearGradient-1)" opacity="0.137907609"></path>
                    <circle id="news-1" fill="#FFFFFF" cx="30.5" cy="30.5" r="16.5"></circle>
                    <path d="M29.8567918,52.7135835 C42.4802493,52.7135835 52.7135835,42.4802493 52.7135835,29.8567918 C52.7135835,17.2333342 42.4802493,7 29.8567918,7 C17.2333342,7 7,17.2333342 7,29.8567918 C7,42.4802493 17.2333342,52.7135835 29.8567918,52.7135835 Z M29.8567918,44.932548 C38.182902,44.932548 44.932548,38.182902 44.932548,29.8567918 C44.932548,21.5306815 38.182902,14.7810355 29.8567918,14.7810355 C21.5306815,14.7810355 14.7810355,21.5306815 14.7810355,29.8567918 C14.7810355,38.182902 21.5306815,44.932548 29.8567918,44.932548 Z" id="news-1" fill="url(#linearGradient-1)"></path>
                </g>
            </g>
        </g>
    </g>
</svg>