<svg xmlns="http://www.w3.org/2000/svg" width="872" height="1286" viewBox="0 0 872 1286">
    <g fill="none" fill-rule="evenodd" stroke="#B8CAD0" stroke-linecap="round" stroke-linejoin="round" opacity=".6">
        <path d="M.852 899.912l13.432-185.945 99.577-91.96 69.16-126.316 118.018-28.153 153.231 32.113 89.574-94.003 36.049-167.056 114.045-49.131 61.897-109.782 104.891-78.62 145.952-7.429 50.497-131.61" opacity=".4"/>
        <path d="M16.303 925.627l13.432-185.945 99.577-91.96 69.16-126.316 118.018-28.153 153.231 32.113 89.574-94.003 36.049-167.056 114.045-49.131 61.897-109.782 104.891-78.62 145.952-7.429 50.497-131.61" opacity=".4"/>
        <path d="M31.754 951.342l13.432-185.945 99.578-91.96 69.16-126.316 118.018-28.153 153.23 32.113 89.574-94.003 36.05-167.056 114.044-49.131 61.897-109.782 104.891-78.62 145.952-7.429 50.498-131.61" opacity=".4"/>
        <path d="M47.205 977.057l13.432-185.945 99.578-91.96 69.16-126.316 118.018-28.153 153.23 32.113 89.574-94.003 36.05-167.056 114.044-49.131 61.897-109.782 104.892-78.62 145.951-7.429 50.498-131.61" opacity=".4"/>
        <path d="M62.656 1002.772l13.432-185.945 99.578-91.96 69.16-126.316 118.018-28.153 153.23 32.113 89.574-94.003 36.05-167.056 114.044-49.131 61.897-109.782 104.892-78.62 145.951-7.429 50.498-131.61" opacity=".4"/>
        <path d="M78.107 1028.487L91.54 842.542l99.578-91.96 69.16-126.316 118.018-28.153 153.231 32.113 89.573-94.003 36.05-167.056 114.044-49.131 61.897-109.782 104.892-78.62 145.952-7.429 50.497-131.61" opacity=".4"/>
        <path d="M93.558 1054.202l13.433-185.945 99.577-91.96 69.16-126.316 118.018-28.153 153.231 32.113 89.574-94.003L672.6 392.882l114.044-49.131 61.898-109.782 104.891-78.62 145.952-7.429 50.497-131.61" opacity=".4"/>
        <path d="M109.01 1079.917l13.432-185.945 99.577-91.96 69.16-126.316 118.018-28.153 153.231 32.113 89.574-94.003 36.049-167.056 114.045-49.131 61.897-109.782 104.891-78.62 145.952-7.429 50.497-131.61" opacity=".4"/>
        <path d="M124.46 1105.632l13.433-185.945 99.577-91.96 69.16-126.316 118.018-28.153 153.231 32.113 89.574-94.003 36.049-167.056 114.045-49.131 61.897-109.782 104.891-78.62 145.952-7.429 50.497-131.61" opacity=".4"/>
        <path d="M139.912 1131.347l13.432-185.945 99.578-91.96 69.16-126.316L440.1 698.973l153.23 32.113 89.574-94.003 36.05-167.056 114.044-49.131 61.897-109.782 104.891-78.62 145.952-7.429 50.498-131.61" opacity=".4"/>
        <path d="M155.363 1157.062l13.432-185.945 99.578-91.96 69.16-126.316 118.018-28.153 153.23 32.113 89.574-94.003 36.05-167.056 114.044-49.131 61.897-109.782 104.892-78.62 145.951-7.429 50.498-131.61" opacity=".4"/>
        <path d="M170.814 1182.777l13.432-185.945 99.578-91.96 69.16-126.316 118.018-28.153 153.23 32.113 89.574-94.003 36.05-167.056L863.9 472.326l61.897-109.782 104.892-78.62 145.951-7.429 50.498-131.61" opacity=".4"/>
        <path d="M186.265 1208.492l13.432-185.945 99.578-91.96 69.16-126.316 118.018-28.152 153.231 32.112 89.573-94.003 36.05-167.056 114.044-49.131 61.897-109.782 104.892-78.62 145.952-7.429 50.497-131.61" opacity=".4"/>
        <path d="M201.716 1234.207l13.433-185.945 99.577-91.96 69.16-126.316 118.018-28.152 153.231 32.112 89.574-94.003 36.049-167.056 114.044-49.131L956.7 413.974l104.891-78.62 145.952-7.429 50.497-131.61" opacity=".4"/>
        <path d="M217.168 1259.922l13.432-185.945 99.577-91.96 69.16-126.316 118.018-28.152 153.231 32.112 89.574-94.003 36.049-167.056 114.045-49.13 61.897-109.783 104.891-78.62 145.952-7.429 50.497-131.61" opacity=".4"/>
        <path d="M232.619 1285.637l13.432-185.945 99.577-91.96 69.16-126.316 118.018-28.152 153.231 32.112 89.574-94.003 36.049-167.056 114.045-49.13 61.897-109.783 104.891-78.62 145.952-7.429 50.497-131.61" opacity=".4"/>
    </g>
</svg>
