<svg xmlns="http://www.w3.org/2000/svg" width="1440" height="705" viewBox="0 0 1440 705">
    <g fill="none" fill-rule="evenodd" stroke="#FFF" stroke-linecap="round" stroke-linejoin="round">
        <path d="M1626 789l-135.071-152.644-167.096-27.571-156.546-72.738-145.62 36.695L877.124 679.31 719.5 644.828 572.269 520.056l-154.936 16.643-137.987-62.295-164.18-13.382-162.327 68.882L-187 443" opacity=".4"/>
        <path d="M1626 809l-135.071-152.644-167.096-27.571-156.546-72.738-145.62 36.695L877.124 699.31 719.5 664.828 572.269 540.056l-154.936 16.643-137.987-62.295-164.18-13.382-162.327 68.882L-187 463" opacity=".4"/>
        <path d="M1626 829l-135.071-152.644-167.096-27.571-156.546-72.738-145.62 36.695L877.124 719.31 719.5 684.828 572.269 560.056l-154.936 16.643-137.987-62.295-164.18-13.382-162.327 68.882L-187 483" opacity=".4"/>
        <path d="M1626 849l-135.071-152.644-167.096-27.571-156.546-72.738-145.62 36.695L877.124 739.31 719.5 704.828 572.269 580.056l-154.936 16.643-137.987-62.295-164.18-13.382-162.327 68.882L-187 503" opacity=".4"/>
        <path d="M1626 869l-135.071-152.644-167.096-27.571-156.546-72.738-145.62 36.695L877.124 759.31 719.5 724.828 572.269 600.056l-154.936 16.643-137.987-62.295-164.18-13.382-162.327 68.882L-187 523" opacity=".4"/>
        <path d="M1626 889l-135.071-152.644-167.096-27.571-156.546-72.738-145.62 36.695L877.124 779.31 719.5 744.828 572.269 620.056l-154.936 16.643-137.987-62.295-164.18-13.382-162.327 68.882L-187 543" opacity=".4"/>
        <path d="M1626 909l-135.071-152.644-167.096-27.571-156.546-72.738-145.62 36.695L877.124 799.31 719.5 764.828 572.269 640.056l-154.936 16.643-137.987-62.295-164.18-13.382-162.327 68.882L-187 563" opacity=".4"/>
        <path d="M1626 929l-135.071-152.644-167.096-27.571-156.546-72.738-145.62 36.695L877.124 819.31 719.5 784.828 572.269 660.056l-154.936 16.643-137.987-62.295-164.18-13.382-162.327 68.882L-187 583" opacity=".4"/>
        <path d="M1626 949l-135.071-152.644-167.096-27.571-156.546-72.738-145.62 36.695L877.124 839.31 719.5 804.828 572.269 680.056l-154.936 16.643-137.987-62.295-164.18-13.382-162.327 68.882L-187 603" opacity=".4"/>
        <path d="M1626 969l-135.071-152.644-167.096-27.571-156.546-72.738-145.62 36.695L877.124 859.31 719.5 824.828 572.269 700.056l-154.936 16.643-137.987-62.295-164.18-13.382-162.327 68.882L-187 623" opacity=".4"/>
        <path d="M1626 989l-135.071-152.644-167.096-27.571-156.546-72.738-145.62 36.695L877.124 879.31 719.5 844.828 572.269 720.056l-154.936 16.643-137.987-62.295-164.18-13.382-162.327 68.882L-187 643" opacity=".4"/>
        <path d="M1626 1009l-135.071-152.644-167.096-27.571-156.546-72.738-145.62 36.695L877.124 899.31 719.5 864.828 572.269 740.056l-154.936 16.643-137.987-62.295-164.18-13.382-162.327 68.882L-187 663" opacity=".4"/>
        <path d="M1626 1029l-135.071-152.644-167.096-27.571-156.546-72.738-145.62 36.695L877.124 919.31 719.5 884.828 572.269 760.056l-154.936 16.643-137.987-62.295-164.18-13.382-162.327 68.882L-187 683" opacity=".4"/>
        <path d="M1626 989l-135.071-152.644-167.096-27.571-156.546-72.738-145.62 36.695L877.124 879.31 719.5 844.828 572.269 720.056l-154.936 16.643-137.987-62.295-164.18-13.382-162.327 68.882L-187 643" opacity=".4"/>
        <path d="M1626 1009l-135.071-152.644-167.096-27.571-156.546-72.738-145.62 36.695L877.124 899.31 719.5 864.828 572.269 740.056l-154.936 16.643-137.987-62.295-164.18-13.382-162.327 68.882L-187 663" opacity=".4"/>
        <path d="M1626 1029l-135.071-152.644-167.096-27.571-156.546-72.738-145.62 36.695L877.124 919.31 719.5 884.828 572.269 760.056l-154.936 16.643-137.987-62.295-164.18-13.382-162.327 68.882L-187 683M1626 759l-135.071-152.644-167.096-27.571-156.546-72.738-145.62 36.695L877.124 649.31 719.5 614.828 572.269 490.056l-154.936 16.643-137.987-62.295-164.18-13.382-162.327 68.882L-187 413" opacity=".4"/>
        <path d="M1626 779l-135.071-152.644-167.096-27.571-156.546-72.738-145.62 36.695L877.124 669.31 719.5 634.828 572.269 510.056l-154.936 16.643-137.987-62.295-164.18-13.382-162.327 68.882L-187 433" opacity=".4"/>
        <path d="M1626 799l-135.071-152.644-167.096-27.571-156.546-72.738-145.62 36.695L877.124 689.31 719.5 654.828 572.269 530.056l-154.936 16.643-137.987-62.295-164.18-13.382-162.327 68.882L-187 453" opacity=".4"/>
        <path d="M1626 819l-135.071-152.644-167.096-27.571-156.546-72.738-145.62 36.695L877.124 709.31 719.5 674.828 572.269 550.056l-154.936 16.643-137.987-62.295-164.18-13.382-162.327 68.882L-187 473" opacity=".4"/>
        <path d="M1626 839l-135.071-152.644-167.096-27.571-156.546-72.738-145.62 36.695L877.124 729.31 719.5 694.828 572.269 570.056l-154.936 16.643-137.987-62.295-164.18-13.382-162.327 68.882L-187 493" opacity=".4"/>
        <path d="M1626 859l-135.071-152.644-167.096-27.571-156.546-72.738-145.62 36.695L877.124 749.31 719.5 714.828 572.269 590.056l-154.936 16.643-137.987-62.295-164.18-13.382-162.327 68.882L-187 513" opacity=".4"/>
        <path d="M1626 879l-135.071-152.644-167.096-27.571-156.546-72.738-145.62 36.695L877.124 769.31 719.5 734.828 572.269 610.056l-154.936 16.643-137.987-62.295-164.18-13.382-162.327 68.882L-187 533" opacity=".4"/>
        <path d="M1626 899l-135.071-152.644-167.096-27.571-156.546-72.738-145.62 36.695L877.124 789.31 719.5 754.828 572.269 630.056l-154.936 16.643-137.987-62.295-164.18-13.382-162.327 68.882L-187 553" opacity=".4"/>
        <path d="M1626 919l-135.071-152.644-167.096-27.571-156.546-72.738-145.62 36.695L877.124 809.31 719.5 774.828 572.269 650.056l-154.936 16.643-137.987-62.295-164.18-13.382-162.327 68.882L-187 573" opacity=".4"/>
        <path d="M1626 939l-135.071-152.644-167.096-27.571-156.546-72.738-145.62 36.695L877.124 829.31 719.5 794.828 572.269 670.056l-154.936 16.643-137.987-62.295-164.18-13.382-162.327 68.882L-187 593" opacity=".4"/>
        <path d="M1626 959l-135.071-152.644-167.096-27.571-156.546-72.738-145.62 36.695L877.124 849.31 719.5 814.828 572.269 690.056l-154.936 16.643-137.987-62.295-164.18-13.382-162.327 68.882L-187 613" opacity=".4"/>
        <path d="M1626 979l-135.071-152.644-167.096-27.571-156.546-72.738-145.62 36.695L877.124 869.31 719.5 834.828 572.269 710.056l-154.936 16.643-137.987-62.295-164.18-13.382-162.327 68.882L-187 633" opacity=".4"/>
        <path d="M1626 999l-135.071-152.644-167.096-27.571-156.546-72.738-145.62 36.695L877.124 889.31 719.5 854.828 572.269 730.056l-154.936 16.643-137.987-62.295-164.18-13.382-162.327 68.882L-187 653" opacity=".4"/>
        <path d="M1626 1019l-135.071-152.644-167.096-27.571-156.546-72.738-145.62 36.695L877.124 909.31 719.5 874.828 572.269 750.056l-154.936 16.643-137.987-62.295-164.18-13.382-162.327 68.882L-187 673" opacity=".4"/>
        <path d="M1626 1039l-135.071-152.644-167.096-27.571-156.546-72.738-145.62 36.695L877.124 929.31 719.5 894.828 572.269 770.056l-154.936 16.643-137.987-62.295-164.18-13.382-162.327 68.882L-187 693" opacity=".4"/>
        <path d="M1626 999l-135.071-152.644-167.096-27.571-156.546-72.738-145.62 36.695L877.124 889.31 719.5 854.828 572.269 730.056l-154.936 16.643-137.987-62.295-164.18-13.382-162.327 68.882L-187 653M1626 419l-135.071-152.644-167.096-27.571-156.546-72.738-145.62 36.695L877.124 309.31 719.5 274.828 572.269 150.056l-154.936 16.643-137.987-62.295-164.18-13.382-162.327 68.882L-187 73" opacity=".4"/>
        <path d="M1626 379l-135.071-152.644-167.096-27.571-156.546-72.738-145.62 36.695L877.124 269.31 719.5 234.828 572.269 110.056l-154.936 16.643-137.987-62.295-164.18-13.382-162.327 68.882L-187 33" opacity=".4"/>
        <path d="M1626 329l-135.071-152.644-167.096-27.571-156.546-72.738-145.62 36.695L877.124 219.31 719.5 184.828 572.269 60.056 417.333 76.699 279.346 14.404 115.166 1.022-47.16 69.904-187-17" opacity=".4"/>
        <path d="M1626 499l-135.071-152.644-167.096-27.571-156.546-72.738-145.62 36.695L877.124 389.31 719.5 354.828 572.269 230.056l-154.936 16.643-137.987-62.295-164.18-13.382-162.327 68.882L-187 153" opacity=".4"/>
        <path d="M1626 529l-135.071-152.644-167.096-27.571-156.546-72.738-145.62 36.695L877.124 419.31 719.5 384.828 572.269 260.056l-154.936 16.643-137.987-62.295-164.18-13.382-162.327 68.882L-187 183" opacity=".4"/>
        <path d="M1626 549l-135.071-152.644-167.096-27.571-156.546-72.738-145.62 36.695L877.124 439.31 719.5 404.828 572.269 280.056l-154.936 16.643-137.987-62.295-164.18-13.382-162.327 68.882L-187 203" opacity=".4"/>
        <path d="M1626 569l-135.071-152.644-167.096-27.571-156.546-72.738-145.62 36.695L877.124 459.31 719.5 424.828 572.269 300.056l-154.936 16.643-137.987-62.295-164.18-13.382-162.327 68.882L-187 223" opacity=".4"/>
        <path d="M1626 589l-135.071-152.644-167.096-27.571-156.546-72.738-145.62 36.695L877.124 479.31 719.5 444.828 572.269 320.056l-154.936 16.643-137.987-62.295-164.18-13.382-162.327 68.882L-187 243" opacity=".4"/>
        <path d="M1626 609l-135.071-152.644-167.096-27.571-156.546-72.738-145.62 36.695L877.124 499.31 719.5 464.828 572.269 340.056l-154.936 16.643-137.987-62.295-164.18-13.382-162.327 68.882L-187 263" opacity=".4"/>
        <path d="M1626 629l-135.071-152.644-167.096-27.571-156.546-72.738-145.62 36.695L877.124 519.31 719.5 484.828 572.269 360.056l-154.936 16.643-137.987-62.295-164.18-13.382-162.327 68.882L-187 283" opacity=".4"/>
        <path d="M1626 649l-135.071-152.644-167.096-27.571-156.546-72.738-145.62 36.695L877.124 539.31 719.5 504.828 572.269 380.056l-154.936 16.643-137.987-62.295-164.18-13.382-162.327 68.882L-187 303" opacity=".4"/>
        <path d="M1626 669l-135.071-152.644-167.096-27.571-156.546-72.738-145.62 36.695L877.124 559.31 719.5 524.828 572.269 400.056l-154.936 16.643-137.987-62.295-164.18-13.382-162.327 68.882L-187 323" opacity=".4"/>
        <path d="M1626 689l-135.071-152.644-167.096-27.571-156.546-72.738-145.62 36.695L877.124 579.31 719.5 544.828 572.269 420.056l-154.936 16.643-137.987-62.295-164.18-13.382-162.327 68.882L-187 343" opacity=".4"/>
        <path d="M1626 709l-135.071-152.644-167.096-27.571-156.546-72.738-145.62 36.695L877.124 599.31 719.5 564.828 572.269 440.056l-154.936 16.643-137.987-62.295-164.18-13.382-162.327 68.882L-187 363" opacity=".4"/>
        <path d="M1626 729l-135.071-152.644-167.096-27.571-156.546-72.738-145.62 36.695L877.124 619.31 719.5 584.828 572.269 460.056l-154.936 16.643-137.987-62.295-164.18-13.382-162.327 68.882L-187 383" opacity=".4"/>
        <path d="M1626 749l-135.071-152.644-167.096-27.571-156.546-72.738-145.62 36.695L877.124 639.31 719.5 604.828 572.269 480.056l-154.936 16.643-137.987-62.295-164.18-13.382-162.327 68.882L-187 403" opacity=".4"/>
        <path d="M1626 769l-135.071-152.644-167.096-27.571-156.546-72.738-145.62 36.695L877.124 659.31 719.5 624.828 572.269 500.056l-154.936 16.643-137.987-62.295-164.18-13.382-162.327 68.882L-187 423M1626 459l-135.071-152.644-167.096-27.571-156.546-72.738-145.62 36.695L877.124 349.31 719.5 314.828 572.269 190.056l-154.936 16.643-137.987-62.295-164.18-13.382-162.327 68.882L-187 113" opacity=".4"/>
        <path d="M1626 519l-135.071-152.644-167.096-27.571-156.546-72.738-145.62 36.695L877.124 409.31 719.5 374.828 572.269 250.056l-154.936 16.643-137.987-62.295-164.18-13.382-162.327 68.882L-187 173" opacity=".4"/>
        <path d="M1626 539l-135.071-152.644-167.096-27.571-156.546-72.738-145.62 36.695L877.124 429.31 719.5 394.828 572.269 270.056l-154.936 16.643-137.987-62.295-164.18-13.382-162.327 68.882L-187 193" opacity=".4"/>
        <path d="M1626 559l-135.071-152.644-167.096-27.571-156.546-72.738-145.62 36.695L877.124 449.31 719.5 414.828 572.269 290.056l-154.936 16.643-137.987-62.295-164.18-13.382-162.327 68.882L-187 213" opacity=".4"/>
        <path d="M1626 579l-135.071-152.644-167.096-27.571-156.546-72.738-145.62 36.695L877.124 469.31 719.5 434.828 572.269 310.056l-154.936 16.643-137.987-62.295-164.18-13.382-162.327 68.882L-187 233" opacity=".4"/>
        <path d="M1626 599l-135.071-152.644-167.096-27.571-156.546-72.738-145.62 36.695L877.124 489.31 719.5 454.828 572.269 330.056l-154.936 16.643-137.987-62.295-164.18-13.382-162.327 68.882L-187 253" opacity=".4"/>
        <path d="M1626 619l-135.071-152.644-167.096-27.571-156.546-72.738-145.62 36.695L877.124 509.31 719.5 474.828 572.269 350.056l-154.936 16.643-137.987-62.295-164.18-13.382-162.327 68.882L-187 273" opacity=".4"/>
        <path d="M1626 639l-135.071-152.644-167.096-27.571-156.546-72.738-145.62 36.695L877.124 529.31 719.5 494.828 572.269 370.056l-154.936 16.643-137.987-62.295-164.18-13.382-162.327 68.882L-187 293" opacity=".4"/>
        <path d="M1626 659l-135.071-152.644-167.096-27.571-156.546-72.738-145.62 36.695L877.124 549.31 719.5 514.828 572.269 390.056l-154.936 16.643-137.987-62.295-164.18-13.382-162.327 68.882L-187 313" opacity=".4"/>
        <path d="M1626 679l-135.071-152.644-167.096-27.571-156.546-72.738-145.62 36.695L877.124 569.31 719.5 534.828 572.269 410.056l-154.936 16.643-137.987-62.295-164.18-13.382-162.327 68.882L-187 333" opacity=".4"/>
        <path d="M1626 699l-135.071-152.644-167.096-27.571-156.546-72.738-145.62 36.695L877.124 589.31 719.5 554.828 572.269 430.056l-154.936 16.643-137.987-62.295-164.18-13.382-162.327 68.882L-187 353" opacity=".4"/>
        <path d="M1626 719l-135.071-152.644-167.096-27.571-156.546-72.738-145.62 36.695L877.124 609.31 719.5 574.828 572.269 450.056l-154.936 16.643-137.987-62.295-164.18-13.382-162.327 68.882L-187 373" opacity=".4"/>
        <path d="M1626 739l-135.071-152.644-167.096-27.571-156.546-72.738-145.62 36.695L877.124 629.31 719.5 594.828 572.269 470.056l-154.936 16.643-137.987-62.295-164.18-13.382-162.327 68.882L-187 393" opacity=".4"/>
    </g>
</svg>
