<?xml version="1.0" encoding="utf-8"?>
<!-- Generator: Adobe Illustrator 16.0.0, SVG Export Plug-In . SVG Version: 6.00 Build 0)  -->
<!DOCTYPE svg PUBLIC "-//W3C//DTD SVG 1.1//EN" "http://www.w3.org/Graphics/SVG/1.1/DTD/svg11.dtd">
<svg version="1.1" id="Layer_1" xmlns="http://www.w3.org/2000/svg" xmlns:xlink="http://www.w3.org/1999/xlink" x="0px" y="0px"
	 width="180px" height="180px" viewBox="0 0 180 180" enable-background="new 0 0 180 180" xml:space="preserve">
<g id="Page-1">
	<g id="Home" transform="translate(-1222.000000, -620.000000)">
		<g id="SECTION-1" transform="translate(530.000000, 608.000000)">
			<g id="illu-buying" transform="translate(680.000000, 0.000000)">
				<rect id="Rectangle-10" x="12" y="12" fill="none" width="180" height="180"/>
				<g id="Group-22" transform="translate(16.000000, 12.000000)">
					<path id="Rectangle-8_33_" fill="#FFFFFF" stroke="#585D75" stroke-width="2" d="M16.809,18.991l31.514-5.557
						c2.175-0.384,4.25,1.069,4.634,3.245l3.473,19.696c0.384,2.175-1.069,4.25-3.245,4.634l-31.514,5.557
						c-2.176,0.384-4.25-1.069-4.634-3.245l-3.473-19.696C13.181,21.45,14.634,19.375,16.809,18.991z"/>
					<path id="Rectangle-8_32_" fill="#F2F6FC" stroke="#585D75" stroke-width="2" d="M19,22h32c2.209,0,4,1.791,4,4v20
						c0,2.209-1.791,4-4,4H19c-2.209,0-4-1.791-4-4V26C15,23.791,16.791,22,19,22z"/>
					<path id="Rectangle-6_59_" fill="#D7DBEA" d="M21,29h4c0.552,0,1,0.448,1,1l0,0c0,0.552-0.448,1-1,1h-4c-0.552,0-1-0.448-1-1
						l0,0C20,29.448,20.448,29,21,29z"/>
					<path id="Rectangle-6_58_" fill="#D7DBEA" d="M21,34h14c0.552,0,1,0.448,1,1l0,0c0,0.552-0.448,1-1,1H21c-0.552,0-1-0.448-1-1
						l0,0C20,34.448,20.448,34,21,34z"/>
					<path id="Rectangle-6_57_" fill="#D7DBEA" d="M29,29h4c0.552,0,1,0.448,1,1l0,0c0,0.552-0.448,1-1,1h-4c-0.552,0-1-0.448-1-1
						l0,0C28,29.448,28.448,29,29,29z"/>
					<path id="Rectangle-6_56_" fill="#D7DBEA" d="M37,29h4c0.552,0,1,0.448,1,1l0,0c0,0.552-0.448,1-1,1h-4c-0.552,0-1-0.448-1-1
						l0,0C36,29.448,36.448,29,37,29z"/>
					<path id="Rectangle-6_55_" fill="#D7DBEA" d="M45,29h4c0.552,0,1,0.448,1,1l0,0c0,0.552-0.448,1-1,1h-4c-0.552,0-1-0.448-1-1
						l0,0C44,29.448,44.448,29,45,29z"/>
					<circle id="Oval-6_23_" fill="#FFD13A" cx="46.5" cy="42.5" r="3.5"/>
					<circle id="Oval-6_22_" fill="#FF693A" cx="42.5" cy="42.5" r="3.5"/>
				</g>
				<g id="Group-22_1_" transform="translate(136.000000, 47.000000)">
					<path id="Rectangle-8_22_" fill="#F2F6FC" stroke="#585D75" stroke-width="2" d="M16,12h32c2.209,0,4,1.791,4,4v20
						c0,2.209-1.791,4-4,4H16c-2.209,0-4-1.791-4-4V16C12,13.791,13.791,12,16,12z"/>
					<circle id="Oval-8_11_" fill="#585D75" cx="24.5" cy="33.5" r="3.5"/>
					<path id="Rectangle-9_11_" fill="#585D75" d="M16.758,32.468c0.134-0.535,0.693-0.968,1.232-0.968h4.02
						c0.547,0,0.99,0.443,0.99,1.009v1.981c0,0.557-0.438,1.009-1.003,1.009h-4.994c-0.554,0-0.896-0.428-0.761-0.968L16.758,32.468
						z"/>
					<path id="Path-4_11_" fill="none" stroke="#585D75" stroke-width="2" d="M12,21h40"/>
				</g>
				<circle id="Oval-5" fill="#FF693A" stroke="#585D75" stroke-width="2" cx="102" cy="102" r="29"/>
				<path id="Oval-5_1_" fill="none" stroke="#585D75" stroke-width="2" stroke-linecap="round" d="M48.411,70.8
					c-1.898,3.252-3.508,6.693-4.795,10.288 M41.524,88.276C40.526,92.69,40,97.283,40,102c0,12.584,3.749,24.291,10.19,34.068
					 M112.885,163.048c22.228-3.937,40.364-19.716,47.658-40.584 M162.676,114.807C163.543,110.674,164,106.391,164,102
					c0-1.728-0.07-3.438-0.209-5.13 M140.629,53.502C130.033,45.051,116.606,40,102,40c-6.285,0-12.352,0.935-18.068,2.674"/>
				<g id="Group" transform="translate(73.000000, 71.000000)">
					<path id="Combined-Shape" fill="#FFFFFF" d="M36.413,43.291c-0.922,0.653-1.997,1.076-3.111,1.268
						c-1.114,0.23-2.267,0.23-3.495,0.077c-0.846-0.115-1.729-0.269-2.611-0.538l-1.729,4.802L22.701,47.9L24.43,43.1l-2.805-1.037
						l-1.729,4.801l-2.766-0.998l1.729-4.802l-5.992-2.189l1.037-2.881l0.884,0.23c0.308,0.115,0.729,0.192,1.306,0.346
						c0.73,0.192,0.999,0.153,1.076,0.192c0.307,0,0.422-0.077,0.422-0.077c0.077-0.077,0.154-0.192,0.23-0.423l5.762-15.863
						c0.077-0.23,0.077-0.384,0.077-0.538c0-0.039-0.077-0.154-0.269-0.346c-0.27-0.269-0.615-0.461-0.922-0.691
						c-0.423-0.23-0.769-0.384-0.999-0.538l-0.845-0.384l1.037-2.881l5.838,2.113l1.729-4.725l2.766,0.999l-1.652,4.801l2.805,1.037
						l1.729-4.802l2.766,0.999l-1.768,4.839c0.576,0.23,1.114,0.538,1.613,0.807c0.884,0.538,1.652,1.152,2.382,1.882
						c0.691,0.73,1.19,1.575,1.498,2.536c0.308,0.998,0.269,2.074-0.115,3.148c-0.346,0.922-0.845,1.691-1.536,2.305
						c-0.653,0.576-1.46,1-2.344,1.268c-0.537,0.154-1.152,0.27-1.805,0.346c0.652,0.539,1.229,1.076,1.729,1.69
						c0.691,0.807,1.19,1.729,1.498,2.804c0.307,1.076,0.23,2.267-0.192,3.457C38.104,41.64,37.412,42.6,36.413,43.291z
						 M32.188,37.99c0.769-2.189-0.346-4.609-2.535-5.416l-4.032-1.459l-2.881,7.951l4.032,1.459
						C28.961,41.332,31.381,40.18,32.188,37.99z M34.646,27.044c0.652-1.806-0.308-3.88-2.113-4.571l-3.303-1.19l-2.42,6.684
						l3.303,1.19C31.957,29.809,33.993,28.887,34.646,27.044z"/>
				</g>
				<g id="Group-23" transform="translate(40.000000, 133.000000)">
					
						<path id="Combined-Shape_20_" fill="#F2F6FC" stroke="#585D75" stroke-width="2" stroke-linecap="round" stroke-linejoin="round" d="
						M60,20v-4.003C60,13.794,58.205,12,55.99,12H16.01C13.794,12,12,13.789,12,15.997v20.006C12,38.206,13.795,40,16.01,40h39.98
						c2.216,0,4.01-1.789,4.01-3.997V32c-3.313,0-6-2.687-6-6S56.687,20,60,20z"/>
					<path id="Rectangle-8_12_" fill="#FFFFFF" d="M12,15.997C12,13.789,13.785,12,15.995,12H49v28H15.995
						C13.789,40,12,38.206,12,36.003V15.997z"/>
					
						<path id="Combined-Shape_19_" fill="none" stroke="#585D75" stroke-width="2" stroke-linecap="round" stroke-linejoin="round" d="
						M60,20v-4.003C60,13.794,58.205,12,55.99,12H16.01C13.794,12,12,13.789,12,15.997v20.006C12,38.206,13.795,40,16.01,40h39.98
						c2.216,0,4.01-1.789,4.01-3.997V32c-3.313,0-6-2.687-6-6S56.687,20,60,20z"/>
					
						<path id="Path-25_9_" fill="none" stroke="#585D75" stroke-width="2" stroke-linecap="round" stroke-linejoin="round" stroke-dasharray="1,4" d="
						M49,12v28"/>
					<text transform="matrix(1 0 0 1 17 29.5)" fill="#585D75" font-family="'OpenSans-SemiBold'" font-size="10">CASH</text>
				</g>
				<polyline id="Path-26" fill="none" stroke="#585D75" stroke-width="2" points="177,59 177,73.5 177,87 				"/>
				
					<g id="Group-24" transform="translate(165.000000, 56.000000) rotate(20.000000) translate(-165.000000, -56.000000) translate(152.000000, 50.000000)">
					<path id="Path-27" fill="#FFFFFF" stroke="#585D75" stroke-width="2" stroke-linecap="round" stroke-linejoin="round" d="
						M29.381,11.672l0,3l6.929,3.175c2.8,1.284,5.071-0.169,5.071-3.239l0-3.872c0-3.073-2.2-4.372-4.898-2.911L29.381,11.672z"/>
					<path id="Path-27_1_" fill="#FFFFFF" stroke="#585D75" stroke-width="2" stroke-linecap="round" stroke-linejoin="round" d="
						M27.38,11.672l0,3l-6.928,3.175c-2.802,1.284-5.073-0.169-5.072-3.239l0-3.872c0-3.073,2.201-4.372,4.898-2.911L27.38,11.672z"
						/>
					<path id="Path-28" fill="none" stroke="#585D75" stroke-width="2" stroke-linecap="round" d="M21.38,13.172l14,0"/>
					<circle id="Oval-10" fill="#FFFFFF" stroke="#585D75" stroke-width="2" cx="28.381" cy="13.172" r="4"/>
				</g>
			</g>
		</g>
	</g>
</g>
</svg>
